# xmcd
#
# Track frame offsets: 
#        150
#        22943
#        43663
#        68512
#        97042
#        117604
#        133170
#        155142
#        186220
#        211679
#        237030
#        269388
#        293352
#        312905
#
# Disc length: 4383 seconds
#
# Revision: 1
# Processed by: cddbd v1.5.2PL0 Copyright (c) Steve Scherf et al.
# Submitted via: ExactAudioCopy v0.99pb4
#
DISCID=c3111d0e
DTITLE=Maxim Saury Swing Washband - 60 ans de Jazz
DYEAR=2008
DGENRE=Jazz
TTITLE0=Original dixieland one step (Nick LA ROTA, J.Russel ROBENSON)
TTITLE1=Apex Blues (Jimmy NOONE, Joe POSTON)
TTITLE2=I got rhythm (Georges GERSHWIN)
TTITLE3=If you see me coming (Teddy BONNE, Mezz MEZZROW)
TTITLE4=Weary blues (Artie MATTHEWS)
TTITLE5=Jazz me blues (Tom DELANEY)
TTITLE6=A kiss to build a dream on (Harry RUBY)
TTITLE7=Honneysuckle rose (Thomas Fats WALLER)
TTITLE8=What id i do to be so Black and Blues (Thomas Fats WALLER)
TTITLE9=Royal garden blues (Clarence WILLIAMS)
TTITLE10=Basin steet blues (Clarence WILLIAMS)
TTITLE11=Crazy rhythm (Roger Wolfe KAHN)
TTITLE12=Blues in air (Sidney BICHET)
TTITLE13=Petite fleur (Sidney BICHET)
EXTD=
EXTT0=
EXTT1=
EXTT2=
EXTT3=
EXTT4=
EXTT5=
EXTT6=
EXTT7=
EXTT8=
EXTT9=
EXTT10=
EXTT11=
EXTT12=
EXTT13=
PLAYORDER=
